<?xml version="1.0" encoding="UTF-8"?>
<svg id="Capa_1" xmlns="http://www.w3.org/2000/svg" version="1.1" viewBox="0 0 281.8 142.2">
  <!-- Generator: Adobe Illustrator 29.0.0, SVG Export Plug-In . SVG Version: 2.1.0 Build 186)  -->
  <defs>
    <style>
      .st0 {
        fill: none;
      }

      .st0, .st1 {
        stroke: #000;
        stroke-miterlimit: 10;
        stroke-width: .5px;
      }
    </style>
  </defs>
  <polygon class="st0" points="64.6 23.9 65.8 18.2 63.4 15.1 45.5 15.1 41.7 18.2 40 25.8 42.5 28.8 68.3 28.8 76.4 39.1 71.9 60.6 60.8 71.1 58.5 84.1 28.1 84.1 25.2 97.6 53.6 97.6 50.6 111.7 22.2 111.7 16.2 139.9 2.1 139.9 16.8 71.1 26.4 71.1 18.3 60.7 21 48.1 35.1 48.1 33.9 53.8 36.3 56.9 55.5 56.9 59.2 53.8 60.8 46.1 58.4 43 32.6 43 24.5 32.7 29 11.2 41.6 1 73.4 1 81.5 11.3 78.8 23.9 64.6 23.9"/>
  <path class="st0" d="M136.5,15.1l3-14.1h-45.4l-14.8,69.6c0-.2,0-.4.1-.6-5.1,23.3-10.1,46.7-15.2,70h0c0,.1,42.5.1,42.5.1l12.8-10.4,10.7-49.7-6-9.4,3.4-13.8h-31.3l3-14.1h27.9l3-14.1h-27.9l2.9-13.5h31.3ZM106.6,122.6l-3.8,3.1h-21.1,0c0,0,9.1-42,9.1-42h21.1l2.4,3.1-7.8,35.8Z"/>
  <path class="st0" d="M193.7,1h-32.3l-12.5,10.3-12.1,56.8c0,0,0-.1,0-.2-5.1,24-10.2,48-15.3,72h45.4l3-14.1h-31.3l3-14.1h27.9l3-14.1h-27.9l2.9-13.5,38.7-.5,2.8-12.6h0c4.2-19.9,8.5-39.8,12.8-59.7l-8.1-10.3ZM161.6,18.2l3.7-3.1h18.6l2.4,3.1-3.9,18.1h-24.7l3.9-18.1ZM154.7,50.4h24.7l-3.8,17.7h-24.7l3.8-17.7Z"/>
  <path class="st0" d="M262.6,1l-11.9,55.6h-2.7L243.1,1h-27.1c-5.1,23.4-10.2,46.7-15.3,70.1l-2.5,13.5,29.2-.5-.7,3.2-35.5,30.3c-1.6,7.3-3.3,14.6-4.9,21.9l44.4.4,3-14.1h-30.2l.8-3.8,36.5-29.8,5.1-21.1c5.4,0,10.7,0,16,0,5-23.3,9.9-46.7,14.9-70h-14.2ZM216,71.1c3.7-18.6,7.5-37.3,11.2-55.9h2.6c1.4,18.6,2.7,37.2,4.1,55.8h-17.9Z"/>
  <polygon class="st0" points="2.1 139.9 2.1 140 2.1 139.9 2.1 139.9"/>
  <path class="st0" d="M64.2,140"/>
  <path class="st0" d="M94.1,1"/>
  <path class="st0" d="M121.5,141"/>
  <path class="st0" d="M148.9,11.3"/>
  <path class="st0" d="M35.1,48.1"/>
  <path class="st0" d="M15.7,140.1"/>
  <path class="st0" d="M41.7,18.2"/>
  <path class="st1" d="M186.2,140"/>
  <path class="st1" d="M216,1"/>
</svg>