<?xml version="1.0" encoding="UTF-8"?>
<svg id="Capa_1" xmlns="http://www.w3.org/2000/svg" version="1.1" viewBox="0 0 287 146.4">
  <!-- Generator: Adobe Illustrator 29.0.0, SVG Export Plug-In . SVG Version: 2.1.0 Build 186)  -->
  <defs>
    <style>
      .st0 {
        fill: none;
        stroke: #fff;
        stroke-miterlimit: 10;
        stroke-width: 4px;
      }
    </style>
  </defs>
  <polygon class="st0" points="64.6 28.1 65.8 22.4 63.4 19.3 45.5 19.3 41.7 22.4 40 30 42.5 33 68.3 33 76.4 43.3 71.9 64.8 60.8 75.3 58.5 88.3 28.1 88.3 25.2 101.8 53.6 101.8 50.6 115.9 22.2 115.9 16.2 144.1 2.1 144.1 16.8 75.3 26.4 75.3 18.3 64.9 21 52.3 35.1 52.3 33.9 58 36.3 61.1 55.5 61.1 59.2 58 60.8 50.3 58.4 47.2 32.6 47.2 24.5 36.9 29 15.4 41.6 5.2 73.4 5.2 81.5 15.5 78.8 28.1 64.6 28.1"/>
  <path class="st0" d="M136.5,19.3l3-14.1h-45.4l-14.8,69.6c0-.2,0-.4,0-.6-5.1,23.3-10.1,46.7-15.2,70h0c0,.1,42.5.1,42.5.1l12.8-10.4,10.7-49.7-6-9.4,3.4-13.8h-31.3l3-14.1h27.9l3-14.1h-27.9l2.9-13.5h31.3,0ZM106.5,126.8l-3.7,3.1h-21.1l9.1-42h21.1l2.4,3.1-7.8,35.8h0Z"/>
  <path class="st0" d="M200.5,5.2h-32.3l-12.5,10.3-12.1,56.8v-.2c-5.1,24-10.2,48-15.3,72h45.4l3-14.1h-31.3l3-14.1h27.9l3-14.1h-27.9l2.9-13.5,38.7-.5,2.8-12.6h0c4.2-19.9,8.5-39.8,12.8-59.7l-8.1-10.3h0ZM168.4,22.4l3.7-3.1h18.6l2.4,3.1-3.9,18.1h-24.7s3.9-18.1,3.9-18.1ZM161.5,54.6h24.7l-3.8,17.7h-24.7s3.8-17.7,3.8-17.7Z"/>
  <path class="st0" d="M267.3,5.3l-11.9,55.5h-2.7l-4.9-55.6h-27.1c-5.1,23.4-10.2,46.7-15.3,70.1l-2.5,13.5,29.2-.5-.7,3.2-35.5,30.3c-1.6,7.3-3.3,14.6-4.9,21.9l44.4.4,3-14.1h-30.2l.8-3.8,36.5-29.8,5.1-21.1h16c5-23.3,9.9-46.7,14.9-70h-14.2ZM220.7,75.3c3.7-18.6,7.5-37.3,11.2-55.9h2.6c1.4,18.6,2.7,37.2,4.1,55.8h-17.9Z"/>
  <line class="st0" x1="2.1" y1="144.1" x2="2.1" y2="144.1"/>
  <path class="st0" d="M64.2,144.2"/>
  <path class="st0" d="M94.1,5.2"/>
  <path class="st0" d="M121.5,145.2"/>
  <path class="st0" d="M148.9,15.5"/>
  <path class="st0" d="M35.1,52.3"/>
  <path class="st0" d="M15.7,144.3"/>
  <path class="st0" d="M41.7,22.4"/>
  <path class="st0" d="M186.2,144.2"/>
  <path class="st0" d="M216,5.2"/>
</svg>